<svg id="Layer_1" data-name="Layer 1" xmlns="http://www.w3.org/2000/svg" viewBox="0 0 556.36 319.32"><title>vmf logo QARA</title><polygon points="2.86 203.22 552.37 203.22 552.37 239.46 2.86 239.46 2.86 203.22 2.86 203.22" style="fill:#231f20;fill-rule:evenodd"/><path d="M451.41,239.35H580.72v39.21H504.78V305h64.84v37H504.78v68.9H450V239.35h1.42Zm-221.44,0h69.12l0.28,1.1,24.89,97.21L349,240.45l0.28-1.1h70.33v171.6H374.54V292.26l-30,117.58-0.28,1.1H303.88l-0.28-1.11L273.74,292.3V411H228.53V239.35H230Z" transform="translate(-28 -239.35)" style="fill:#fff;fill-rule:evenodd"/><path d="M451.41,239.35H580.72v39.21H504.78V305h64.84v37H504.78v68.9H450V239.35h1.42Zm126.46,3h-125V408h49.09V339.09h64.84V308H501.92V275.59h75.94V242.31h0Zm-347.9-3h69.12l0.28,1.1,24.89,97.21L349,240.45l0.28-1.1h70.33v171.6H374.54V292.26l-30,117.58-0.28,1.1H303.88l-0.28-1.11L273.74,292.3V411H228.53V239.35H230Zm66.93,3h-65.5V408h39.49V280.88l2.81-.37L306.07,408h36L374.59,280.5l2.81,0.37V408h39.38V242.31H351.5L325.63,343.8h-2.75l-26-101.5h0Z" transform="translate(-28 -239.35)" style="fill:#231f20;fill-rule:evenodd"/><polygon points="4.12 1.48 58.21 1.48 95.89 122.85 132.99 1.48 185.51 1.48 123.4 170.12 67.37 170.13 4.12 1.48 4.12 1.48" style="fill:#231f20;fill-rule:evenodd"/><path d="M95.83,408.82h55.1l61.64-167.34H161.48l-37.58,123-38.18-123H33.07L95.83,408.82h0Zm56,1.31h-57l-0.16-.42L31.17,240.18H86.71l0.13,0.46,37,119.32L160.5,240.17h54l-0.32.87L151.87,410.13h0Z" transform="translate(-28 -239.35)" style="fill:#fff;fill-rule:evenodd"/><path d="M30.86,439.61H583.22v42.16H28V439.61h2.85Zm546.66,5.92H33.72v30.31H577.51V445.53h0Z" transform="translate(-28 -239.35)" style="fill:#231f20;fill-rule:evenodd"/><polygon points="2.86 203.22 183.25 203.22 183.25 239.46 2.86 239.46 2.86 203.22 2.86 203.22" style="fill:#fff;fill-rule:evenodd"/><path d="M28,547.81l7.61-36.35h4.82l-3.17,15.13H56.2l3.17-15.13h4.82l-7.61,36.35H51.76l3.59-17.11H36.4l-3.58,17.11H28ZM89.74,532a18.9,18.9,0,0,1-1.83,8.09,14.34,14.34,0,0,1-5.32,6.26,12.75,12.75,0,0,1-6.85,2,9.79,9.79,0,0,1-7.61-3,11.12,11.12,0,0,1-2.7-7.83,23.65,23.65,0,0,1,.35-4H85.12a10.81,10.81,0,0,0,.1-1.39A9.35,9.35,0,0,0,83.88,527a5,5,0,0,0-4.49-2.41,7.69,7.69,0,0,0-4.84,1.74,10.34,10.34,0,0,0-3.14,4.14L67,530a12.24,12.24,0,0,1,4.75-6.51,12.66,12.66,0,0,1,7.61-2.58q6.47,0,9.07,5.27A13.1,13.1,0,0,1,89.74,532h0Zm-5.34,5H69.66c0,0.46,0,.79,0,1a7.72,7.72,0,0,0,1.46,4.88,5.43,5.43,0,0,0,4.54,2q6.43,0,8.76-7.92h0Zm8,10.81,5.48-26.35h4l-1.13,5.39a18.62,18.62,0,0,1,4-4.49,6.56,6.56,0,0,1,4-1.45,7.79,7.79,0,0,1,3.29,1L110.23,526a4.2,4.2,0,0,0-2.55-.86q-2.36,0-4.85,2.63t-3.93,9.45l-2.2,10.56H92.43Zm32.83-11.73,4.77-.46L130,536.89a7.85,7.85,0,0,0,1,3.86,6.34,6.34,0,0,0,3.19,2.7,13.45,13.45,0,0,0,5.3,1c2.9,0,5.11-.64,6.64-1.91a5.62,5.62,0,0,0,2.28-4.37,4.72,4.72,0,0,0-1.21-3.13c-0.83-.93-3.08-2.18-6.76-3.77a48.48,48.48,0,0,1-5.84-2.84,11.57,11.57,0,0,1-3.61-3.51,8.11,8.11,0,0,1-1.16-4.32,8.76,8.76,0,0,1,1.54-5,9.51,9.51,0,0,1,4.49-3.44,17.71,17.71,0,0,1,6.67-1.19,17,17,0,0,1,7.49,1.48,9.89,9.89,0,0,1,5.8,8.69v0.74l-4.72.37a8.59,8.59,0,0,0-.27-2.41,6.36,6.36,0,0,0-1.53-2.55,7.4,7.4,0,0,0-2.85-1.67,12.23,12.23,0,0,0-4.07-.64,9.47,9.47,0,0,0-6.14,1.78,4.44,4.44,0,0,0-1.68,3.63,4.26,4.26,0,0,0,.69,2.4,7.06,7.06,0,0,0,2.5,2.07q1.28,0.72,6.1,2.85a39.76,39.76,0,0,1,5.39,2.72,9.36,9.36,0,0,1,3,3.18,8.45,8.45,0,0,1,1.07,4.25,9.11,9.11,0,0,1-1.79,5.43,11.62,11.62,0,0,1-5,3.86,18.34,18.34,0,0,1-7.26,1.36,17.46,17.46,0,0,1-10.08-2.68q-3.9-2.68-3.92-9.65h0ZM175,544.53a17.75,17.75,0,0,1-4.48,2.92,11.77,11.77,0,0,1-4.62.91,8.12,8.12,0,0,1-5.87-2.14,7.24,7.24,0,0,1-2.23-5.48,7.51,7.51,0,0,1,1-3.9,7.92,7.92,0,0,1,2.66-2.71,11.68,11.68,0,0,1,4.07-1.47,45.42,45.42,0,0,1,5.76-.47,21,21,0,0,0,6.08-.89,11.66,11.66,0,0,0,.53-3.06,3,3,0,0,0-1.14-2.45,7.31,7.31,0,0,0-4.59-1.24,8,8,0,0,0-4.64,1.25,7.11,7.11,0,0,0-2.62,3.57L160.4,529a11.82,11.82,0,0,1,4.39-6,13,13,0,0,1,7.59-2.08,11.89,11.89,0,0,1,7.72,2.32,5.52,5.52,0,0,1,2.17,4.51,23.17,23.17,0,0,1-.61,4.88l-1.45,6.54a24.72,24.72,0,0,0-.68,5.08,17,17,0,0,0,.54,3.57h-4.53a16.8,16.8,0,0,1-.53-3.27h0Zm1.68-10.08a10.84,10.84,0,0,1-2,.57c-0.73.13-1.94,0.28-3.62,0.42a27.22,27.22,0,0,0-5.52.88,4.58,4.58,0,0,0-2.43,1.7,4.34,4.34,0,0,0-.82,2.57,4,4,0,0,0,1.3,3.1,5.2,5.2,0,0,0,3.71,1.22,8.49,8.49,0,0,0,4.29-1.18,8.66,8.66,0,0,0,3.26-3.28,19.05,19.05,0,0,0,1.87-6h0Zm26.55,10.08a17.76,17.76,0,0,1-4.48,2.92,11.77,11.77,0,0,1-4.62.91,8.12,8.12,0,0,1-5.87-2.14,7.24,7.24,0,0,1-2.23-5.48,7.51,7.51,0,0,1,1-3.9,7.92,7.92,0,0,1,2.66-2.71,11.69,11.69,0,0,1,4.07-1.47,45.42,45.42,0,0,1,5.76-.47,21,21,0,0,0,6.08-.89,11.66,11.66,0,0,0,.52-3.06,3,3,0,0,0-1.14-2.45,7.31,7.31,0,0,0-4.59-1.24,8,8,0,0,0-4.64,1.25,7.11,7.11,0,0,0-2.62,3.57l-4.52-.41a11.82,11.82,0,0,1,4.39-6,13,13,0,0,1,7.59-2.08,11.89,11.89,0,0,1,7.72,2.32,5.52,5.52,0,0,1,2.17,4.51,23.17,23.17,0,0,1-.61,4.88l-1.45,6.54a24.72,24.72,0,0,0-.68,5.08,17,17,0,0,0,.54,3.57h-4.53a16.82,16.82,0,0,1-.52-3.27h0Zm1.68-10.08a10.83,10.83,0,0,1-2,.57c-0.73.13-1.94,0.28-3.62,0.42a27.22,27.22,0,0,0-5.52.88,4.58,4.58,0,0,0-2.43,1.7,4.34,4.34,0,0,0-.82,2.57,4,4,0,0,0,1.3,3.1,5.2,5.2,0,0,0,3.71,1.22,8.49,8.49,0,0,0,4.29-1.18,8.66,8.66,0,0,0,3.26-3.28,19,19,0,0,0,1.87-6h0Zm19.27,9.71-0.74,3.67a12.42,12.42,0,0,1-3.12.42,6.43,6.43,0,0,1-4.25-1.32,3.35,3.35,0,0,1-1.19-2.71,26.75,26.75,0,0,1,.64-4l3.2-15.33h-3.55l0.71-3.45h3.55l1.36-6.45,5.14-3.09-2,9.54h4.42l-0.76,3.45H223.2l-3,14.58a26.85,26.85,0,0,0-.57,3.33A1.57,1.57,0,0,0,220,544a2.19,2.19,0,0,0,1.5.42,11,11,0,0,0,2.66-.29h0Zm19.6-8.09,4.77-.46-0.05,1.27a7.85,7.85,0,0,0,1,3.86,6.34,6.34,0,0,0,3.19,2.7,13.45,13.45,0,0,0,5.3,1c2.9,0,5.11-.64,6.64-1.91a5.62,5.62,0,0,0,2.28-4.37,4.72,4.72,0,0,0-1.21-3.13c-0.83-.93-3.08-2.18-6.76-3.77a48.47,48.47,0,0,1-5.84-2.84,11.57,11.57,0,0,1-3.61-3.51,8.11,8.11,0,0,1-1.16-4.32,8.76,8.76,0,0,1,1.54-5,9.51,9.51,0,0,1,4.49-3.44,17.71,17.71,0,0,1,6.67-1.19,17,17,0,0,1,7.49,1.48,9.89,9.89,0,0,1,5.8,8.69v0.74l-4.72.37a8.59,8.59,0,0,0-.27-2.41,6.36,6.36,0,0,0-1.53-2.55,7.4,7.4,0,0,0-2.85-1.67,12.23,12.23,0,0,0-4.07-.64,9.47,9.47,0,0,0-6.14,1.78,4.44,4.44,0,0,0-1.68,3.63,4.26,4.26,0,0,0,.69,2.4,7.06,7.06,0,0,0,2.5,2.07q1.28,0.72,6.1,2.85a39.78,39.78,0,0,1,5.39,2.72,9.36,9.36,0,0,1,3,3.18,8.45,8.45,0,0,1,1.07,4.25,9.11,9.11,0,0,1-1.79,5.43,11.62,11.62,0,0,1-5,3.86,18.34,18.34,0,0,1-7.26,1.36,17.46,17.46,0,0,1-10.08-2.68q-3.9-2.68-3.92-9.65h0Zm38.48-19.54,1.07-5.08h4.46l-1.07,5.08h-4.46Zm-6.55,31.27,5.52-26.35h4.46l-5.52,26.35h-4.46Zm10.67,0,0.73-3.5,14.14-15.89q1.51-1.68,3.38-3.52c-2.13.21-3.66,0.32-4.59,0.32h-9.81l0.81-3.76h20.36l-0.59,2.84-14.3,16.06c-0.82.91-2,2.14-3.57,3.71q3.73-.21,5.12-0.22h10.35l-0.81,4H286.39Zm32.54-31.27,1.07-5.08h4.46l-1.07,5.08h-4.46Zm-6.55,31.27,5.52-26.35h4.46l-5.52,26.35h-4.46Zm26,0L346,511.46h11a24.3,24.3,0,0,1,6,.57,11.58,11.58,0,0,1,5.08,2.74,12.38,12.38,0,0,1,3.17,4.92,19.33,19.33,0,0,1,1.07,6.62,23,23,0,0,1-4.8,14.35,19.7,19.7,0,0,1-4.49,4.29,17.06,17.06,0,0,1-5.54,2.29,26.69,26.69,0,0,1-6,.57h-13.1Zm5.68-4.11h5.77a30.64,30.64,0,0,0,6.94-.71,10.08,10.08,0,0,0,3.23-1.32,12.65,12.65,0,0,0,3.21-3,20.22,20.22,0,0,0,3-5.55,20.72,20.72,0,0,0,1.13-7.09,12.5,12.5,0,0,0-1.54-6.78,7.39,7.39,0,0,0-3.93-3.15,19.32,19.32,0,0,0-5.49-.57h-6.45l-5.89,28.12h0Zm48.41-.65q-4.74,5.32-9.71,5.32a7,7,0,0,1-4.92-1.73,5.58,5.58,0,0,1-1.88-4.26,30.58,30.58,0,0,1,.92-5.7l3.46-15.21h4.51L381,538.52a16.13,16.13,0,0,0-.48,3.32,2.57,2.57,0,0,0,.92,2.12,4.16,4.16,0,0,0,2.71.76,8.26,8.26,0,0,0,3.74-.91,10,10,0,0,0,3.15-2.46,12.94,12.94,0,0,0,2.16-3.67,31.94,31.94,0,0,0,1.28-4.74l2.5-11.46h4.46l-5.83,26.35h-4.15l1-4.76h0Zm-7.84-24.78,1.07-5.08h4.67l-1.07,5.08h-4.67Zm9.14,0,1.07-5.08h4.67l-1.07,5.08h-4.67Zm9.4,20.51,4.52-.25a8.24,8.24,0,0,0,.59,3.3,4.68,4.68,0,0,0,2.17,2.23,7.59,7.59,0,0,0,3.71.87,7,7,0,0,0,4.43-1.19,3.49,3.49,0,0,0,1.48-2.8,3.38,3.38,0,0,0-.88-2.2,14.07,14.07,0,0,0-4.43-2.56,41.31,41.31,0,0,1-4.52-2.13,7.37,7.37,0,0,1-2.52-2.39,5.86,5.86,0,0,1-.84-3.16,7,7,0,0,1,2.47-5.35,10,10,0,0,1,6.92-2.22c3.29,0,5.8.76,7.52,2.29a8,8,0,0,1,2.68,6l-4.36.3a5.11,5.11,0,0,0-1.68-3.78,6.51,6.51,0,0,0-4.46-1.4,5.48,5.48,0,0,0-3.6,1.07,3,3,0,0,0-1.28,2.32,2.82,2.82,0,0,0,1.11,2.18,18.2,18.2,0,0,0,3.81,2q5.12,2.22,6.45,3.51a6.65,6.65,0,0,1,2.13,5,7,7,0,0,1-1.2,3.83,8.25,8.25,0,0,1-3.66,3,13.79,13.79,0,0,1-5.8,1.12,13,13,0,0,1-7.73-2.26c-2.12-1.5-3.14-4-3-7.34h0Zm6.7,13,1-4h3.44L413.75,550a5.63,5.63,0,0,1,3.42,1.51,3.81,3.81,0,0,1,1.17,2.71,3.3,3.3,0,0,1-1.56,2.86c-1.49,1-3.88,1.54-7.16,1.54a28,28,0,0,1-4.33-.3l0.56-2.77c1,0.05,2.31.08,3.77,0.08a7.56,7.56,0,0,0,3.54-.55,1.51,1.51,0,0,0,.86-1.22,1.55,1.55,0,0,0-.74-1.32,6.29,6.29,0,0,0-3.42-.77h0ZM446.08,543q-4.74,5.32-9.71,5.32a7,7,0,0,1-4.92-1.73,5.58,5.58,0,0,1-1.88-4.26,30.58,30.58,0,0,1,.92-5.7L434,521.46h4.51l-3.83,17.06a16.15,16.15,0,0,0-.48,3.32,2.57,2.57,0,0,0,.92,2.12,4.16,4.16,0,0,0,2.71.76,8.26,8.26,0,0,0,3.74-.91,10,10,0,0,0,3.15-2.46,12.94,12.94,0,0,0,2.16-3.67,32,32,0,0,0,1.28-4.74l2.5-11.46h4.46l-5.83,26.35h-4.15l1-4.76h0Zm-7.84-24.78,1.07-5.08H444l-1.07,5.08h-4.67Zm9.14,0,1.07-5.08h4.67L452,518.26h-4.67Zm8.94,29.54,5.52-26.35h4.09l-0.95,4.6a21.53,21.53,0,0,1,5-3.93,10.1,10.1,0,0,1,4.76-1.23,7.09,7.09,0,0,1,5.08,1.74,6.1,6.1,0,0,1,1.85,4.65,24.44,24.44,0,0,1-.69,4.6l-3.56,15.91H473l3.7-16.66a18.49,18.49,0,0,0,.55-3.6,2.68,2.68,0,0,0-.92-2.12,3.89,3.89,0,0,0-2.68-.82,9.1,9.1,0,0,0-6.26,2.47q-2.74,2.48-4,8.48l-2.55,12.25h-4.46ZM510.13,532a18.89,18.89,0,0,1-1.83,8.09,14.34,14.34,0,0,1-5.32,6.26,12.75,12.75,0,0,1-6.85,2,9.79,9.79,0,0,1-7.61-3,11.12,11.12,0,0,1-2.7-7.83,23.65,23.65,0,0,1,.35-4h19.35a10.84,10.84,0,0,0,.1-1.39,9.35,9.35,0,0,0-1.34-5.19,5,5,0,0,0-4.49-2.41,7.69,7.69,0,0,0-4.84,1.74,10.34,10.34,0,0,0-3.14,4.14l-4.37-.45a12.24,12.24,0,0,1,4.75-6.51,12.66,12.66,0,0,1,7.61-2.58q6.47,0,9.07,5.27a13.1,13.1,0,0,1,1.26,5.86h0Zm-5.34,5H490.05c0,0.46,0,.79,0,1a7.72,7.72,0,0,0,1.46,4.88,5.43,5.43,0,0,0,4.54,2q6.43,0,8.76-7.92h0Zm8,10.81,5.48-26.35h4l-1.13,5.39a18.62,18.62,0,0,1,4-4.49,6.56,6.56,0,0,1,4-1.45,7.79,7.79,0,0,1,3.29,1L530.62,526a4.2,4.2,0,0,0-2.55-.86q-2.36,0-4.85,2.63t-3.93,9.45l-2.2,10.56h-4.26ZM555.27,532a18.9,18.9,0,0,1-1.83,8.09,14.34,14.34,0,0,1-5.32,6.26,12.75,12.75,0,0,1-6.85,2,9.79,9.79,0,0,1-7.61-3,11.12,11.12,0,0,1-2.7-7.83,23.65,23.65,0,0,1,.35-4h19.35a10.77,10.77,0,0,0,.1-1.39,9.35,9.35,0,0,0-1.34-5.19,5,5,0,0,0-4.49-2.41,7.69,7.69,0,0,0-4.84,1.74,10.34,10.34,0,0,0-3.14,4.14l-4.37-.45a12.24,12.24,0,0,1,4.75-6.51,12.66,12.66,0,0,1,7.61-2.58q6.47,0,9.07,5.27a13.1,13.1,0,0,1,1.26,5.86h0Zm-5.34,5H535.19c0,0.46,0,.79,0,1a7.73,7.73,0,0,0,1.46,4.88,5.43,5.43,0,0,0,4.54,2q6.43,0,8.76-7.92h0Zm8,10.81,7.61-36.35H570l-4.74,22.61,13.18-12.61h5.93l-11.24,9.83,6.8,16.51H575l-5.29-13.54-5.5,4.72-1.84,8.82h-4.46Z" transform="translate(-28 -239.35)" style="fill:#231f20;fill-rule:evenodd"/></svg>